# xmcd CD database file
#
# Track frame offsets:
#	150
#	17235
#	33670
#	53100
#	69170
#	92387
#	112042
#	141662
#	157477
#	185775
#	201912
#	228130
#
# Disc length: 3176 seconds
#
# Revision: 0
# Processed by: cddbd v1.4PL0 Copyright (c) Steve Scherf et al.
# Submitted via: CDex 1.50Beta7
#
DISCID=af0c660c
DTITLE=Peter Bernstein et al - We Remember Tal: A Tribute to Tal Farlow
DYEAR=1999
DGENRE=Jazz
TTITLE0=With the Wind and Rain In Her Hair
TTITLE1=Move
TTITLE2=Isn't It Romantic
TTITLE3=Fascinating Rhythm
TTITLE4=Miss You Tal
TTITLE5=Talology
TTITLE6=Autumn In New York
TTITLE7=Gibson Boy
TTITLE8=I Remember You
TTITLE9=Meteor
TTITLE10=The More I See You
TTITLE11=My Romance
EXTD=YEAR: 1999
EXTT0=
EXTT1=
EXTT2=
EXTT3=
EXTT4=
EXTT5=
EXTT6=
EXTT7=
EXTT8=
EXTT9=
EXTT10=
EXTT11=
PLAYORDER=
